<mxfile host="app.diagrams.net" modified="2020-10-20T23:15:18.012Z" agent="5.0 (X11)" etag="o6cPZtkaj8Al0b4T-puq" version="13.8.1" type="github">
  <diagram id="gfbTEzODt7UsC7X-8Vdx" name="Page-1">
    <mxGraphModel dx="1027" dy="517" grid="1" gridSize="10" guides="1" tooltips="1" connect="1" arrows="1" fold="1" page="1" pageScale="1" pageWidth="850" pageHeight="1100" math="0" shadow="0">
      <root>
        <mxCell id="0" />
        <mxCell id="1" parent="0" />
        <mxCell id="99LuabsOzEzqGmMlLyqw-1" value="user_account" style="shape=table;startSize=30;container=1;collapsible=1;childLayout=tableLayout;fixedRows=1;rowLines=0;fontStyle=1;align=center;resizeLast=1;fillColor=#CCFFE6;strokeColor=#66FFB3;" vertex="1" parent="1">
          <mxGeometry x="40" y="40" width="300" height="240" as="geometry" />
        </mxCell>
        <mxCell id="99LuabsOzEzqGmMlLyqw-2" value="" style="shape=partialRectangle;collapsible=0;dropTarget=0;pointerEvents=0;fillColor=none;points=[[0,0.5],[1,0.5]];portConstraint=eastwest;top=0;left=0;right=0;bottom=1;" vertex="1" parent="99LuabsOzEzqGmMlLyqw-1">
          <mxGeometry y="30" width="300" height="30" as="geometry" />
        </mxCell>
        <mxCell id="99LuabsOzEzqGmMlLyqw-3" value="PK" style="shape=partialRectangle;overflow=hidden;connectable=0;fillColor=none;top=0;left=0;bottom=0;right=0;fontStyle=1;" vertex="1" parent="99LuabsOzEzqGmMlLyqw-2">
          <mxGeometry width="30" height="30" as="geometry" />
        </mxCell>
        <mxCell id="99LuabsOzEzqGmMlLyqw-4" value="user_idÂ int NOT NULL " style="shape=partialRectangle;overflow=hidden;connectable=0;fillColor=none;top=0;left=0;bottom=0;right=0;align=left;spacingLeft=6;fontStyle=5;" vertex="1" parent="99LuabsOzEzqGmMlLyqw-2">
          <mxGeometry x="30" width="270" height="30" as="geometry" />
        </mxCell>
        <mxCell id="99LuabsOzEzqGmMlLyqw-5" value="" style="shape=partialRectangle;collapsible=0;dropTarget=0;pointerEvents=0;fillColor=none;points=[[0,0.5],[1,0.5]];portConstraint=eastwest;top=0;left=0;right=0;bottom=0;" vertex="1" parent="99LuabsOzEzqGmMlLyqw-1">
          <mxGeometry y="60" width="300" height="140" as="geometry" />
        </mxCell>
        <mxCell id="99LuabsOzEzqGmMlLyqw-6" value="" style="shape=partialRectangle;overflow=hidden;connectable=0;fillColor=none;top=0;left=0;bottom=0;right=0;" vertex="1" parent="99LuabsOzEzqGmMlLyqw-5">
          <mxGeometry width="30" height="140" as="geometry" />
        </mxCell>
        <mxCell id="99LuabsOzEzqGmMlLyqw-7" value="university_id ENUM (BIS, SUR, NORTE)&#xa;&#xa;first_name VARCHAR(20) NOT NULL&#xa;last_name VARCHAR (50) NOT NULL&#xa;cellphone_number VARCHAR(20) NOT NULL&#xa;gender ENUM(M, F) &#xa;email VARCHAR(30) NOT NULL&#xa;password VARCHAR (30) NOT NULL&#xa;student_id INTEGER(10) NOT NULL&#xa;&#xa;&#xa;&#xa;&#xa;&#xa;&#xa;" style="shape=partialRectangle;overflow=hidden;connectable=0;fillColor=none;top=0;left=0;bottom=0;right=0;align=left;spacingLeft=6;" vertex="1" parent="99LuabsOzEzqGmMlLyqw-5">
          <mxGeometry x="30" width="270" height="140" as="geometry" />
        </mxCell>
      </root>
    </mxGraphModel>
  </diagram>
</mxfile>
